<!DOCTYPE svg PUBLIC "-//W3C//DTD SVG 20010904//EN" "http://www.w3.org/TR/2001/REC-SVG-20010904/DTD/svg10.dtd">
<svg version="1.0" xmlns="http://www.w3.org/2000/svg" width="25px" height="25px" viewBox="0 0 250 250" preserveAspectRatio="xMidYMid meet">
<g id="layer101" fill="#090603" stroke="none">
 <path d="M56 223 c-31 -31 -34 -77 -7 -113 15 -19 29 -25 61 -25 l42 0 -4 -42 c-3 -41 -2 -43 24 -43 l28 0 0 124 0 124 -59 1 c-51 0 -63 -4 -85 -26z m74 -38 c7 -8 10 -22 6 -30 -7 -19 -45 -19 -52 0 -6 15 11 45 26 45 4 0 13 -7 20 -15z"/>
 </g>
<g id="layer102" fill="#69210c" stroke="none">
 <path d="M67 215 c-8 -8 -16 -12 -18 -10 -2 2 -4 -16 -4 -40 0 -24 4 -41 9 -37 5 3 7 -1 4 -9 -8 -20 71 -24 97 -5 26 19 26 83 0 102 -25 18 -70 18 -88 -1z m73 -19 c6 -8 10 -25 8 -38 -2 -19 -9 -23 -38 -23 -29 0 -36 4 -38 23 -6 44 41 70 68 38z"/>
 </g>
<g id="layer103" fill="#453144" stroke="none">
 <path d="M67 215 c-8 -8 -16 -12 -18 -10 -2 2 -4 -16 -4 -40 0 -24 4 -41 9 -37 5 3 7 -1 4 -9 -4 -10 5 -15 33 -17 47 -3 79 24 79 66 0 52 -68 83 -103 47z m66 -23 c-2 -6 3 -11 10 -9 6 1 12 -7 12 -18 0 -11 -5 -19 -12 -18 -7 2 -10 -4 -7 -12 4 -10 0 -15 -11 -15 -9 0 -13 4 -10 10 4 6 -4 9 -17 7 -17 -1 -24 4 -26 21 -2 13 2 30 9 38 14 17 55 14 52 -4z"/>
 </g>
<g id="layer104" fill="#145969" stroke="none">
 <path d="M67 212 c-35 -38 -6 -112 43 -112 29 0 60 35 60 68 0 55 -68 83 -103 44z m78 -22 c16 -18 17 -23 5 -46 -17 -30 -56 -30 -76 1 -12 18 -11 24 2 43 19 27 45 28 69 2z"/>
 </g>
<g id="layer105" fill="#ad1c16" stroke="none">
 <path d="M70 210 c-11 -11 -20 -31 -20 -45 0 -30 32 -65 60 -65 29 0 60 35 60 68 0 56 -61 81 -100 42z m75 -20 c16 -18 17 -23 5 -45 -17 -31 -53 -33 -74 -3 -20 28 -20 33 0 52 21 22 47 20 69 -4z"/>
 </g>
<g id="layer106" fill="#1a2e97" stroke="none">
 <path d="M70 210 c-11 -11 -20 -31 -20 -45 0 -27 35 -69 50 -60 5 3 -2 16 -16 30 -28 28 -30 38 -8 59 21 22 47 20 69 -4 15 -17 16 -24 7 -46 -16 -34 -14 -43 3 -20 48 64 -29 142 -85 86z"/>
 </g>
<g id="layer107" fill="#509a1e" stroke="none">
 <path d="M78 219 c-10 -5 -18 -17 -18 -25 0 -14 2 -14 16 0 21 22 47 20 69 -4 15 -17 16 -24 7 -46 -16 -34 -14 -43 3 -20 44 59 -15 131 -77 95z"/>
 <path d="M60 130 c0 -13 38 -32 44 -21 3 4 -6 13 -19 19 -15 7 -25 8 -25 2z"/>
 </g>
<g id="layer108" fill="#258774" stroke="none">
 <path d="M78 219 c-10 -5 -18 -17 -18 -26 0 -12 5 -11 20 7 28 32 27 37 -2 19z"/>
 <path d="M137 213 c-4 -3 0 -15 10 -25 13 -15 14 -23 5 -44 -16 -34 -14 -43 3 -20 8 11 15 32 15 47 0 27 -21 54 -33 42z"/>
 <path d="M60 130 c0 -13 38 -32 44 -21 3 4 -6 13 -19 19 -15 7 -25 8 -25 2z"/>
 </g>
<g id="layer109" fill="#1c8597" stroke="none">
 <path d="M63 205 c-9 -24 1 -27 15 -5 8 13 8 20 2 20 -6 0 -13 -7 -17 -15z"/>
 <path d="M137 213 c-4 -3 0 -15 10 -25 13 -15 14 -23 5 -44 -16 -34 -14 -43 3 -20 8 11 15 32 15 47 0 27 -21 54 -33 42z"/>
 <path d="M60 130 c0 -13 38 -32 44 -21 3 4 -6 13 -19 19 -15 7 -25 8 -25 2z"/>
 </g>
<g id="layer110" fill="#8a1a96" stroke="none">
 <path d="M137 213 c-4 -3 0 -15 10 -25 13 -15 14 -23 5 -44 -16 -34 -14 -43 3 -20 8 11 15 32 15 47 0 27 -21 54 -33 42z"/>
 <path d="M60 130 c0 -13 38 -32 44 -21 3 4 -6 13 -19 19 -15 7 -25 8 -25 2z"/>
 </g>
<g id="layer111" fill="#d65316" stroke="none">
 <path d="M137 213 c-4 -3 0 -15 10 -25 13 -15 14 -23 5 -44 -16 -34 -14 -43 3 -20 8 11 15 32 15 47 0 27 -21 54 -33 42z"/>
 </g>
<g id="layer112" fill="#c9b71f" stroke="none">
 <path d="M136 212 c-3 -5 3 -17 14 -27 17 -15 20 -16 20 -3 0 19 -26 42 -34 30z"/>
 </g>

</svg>