<!DOCTYPE svg PUBLIC "-//W3C//DTD SVG 20010904//EN" "http://www.w3.org/TR/2001/REC-SVG-20010904/DTD/svg10.dtd">
<svg version="1.0" xmlns="http://www.w3.org/2000/svg" width="547px" height="567px" viewBox="0 0 5470 5670" preserveAspectRatio="xMidYMid meet">
<g id="layer101" fill="#030303" stroke="none">
 <path d="M3332 5468 c-8 -8 -12 -57 -12 -156 l0 -144 -22 16 c-139 100 -342 193 -513 236 -890 225 -1766 -394 -1931 -1365 -21 -127 -29 -369 -15 -494 26 -235 78 -415 182 -626 225 -457 624 -774 1102 -877 150 -32 437 -32 587 1 197 42 366 112 525 215 l86 56 -2 -1039 c0 -572 2 -1045 6 -1050 4 -8 152 -11 464 -11 374 0 461 3 470 14 8 10 10 702 9 2622 l-3 2609 -460 3 c-350 2 -464 -1 -473 -10z m-717 -919 c236 -72 394 -221 510 -477 41 -91 46 -110 57 -225 20 -215 -22 -412 -124 -577 -110 -179 -253 -291 -448 -351 -95 -29 -252 -32 -350 -6 -218 58 -396 208 -501 422 -67 138 -93 248 -93 400 0 419 271 766 652 835 73 14 219 3 297 -21z"/>
 </g>
<g id="layer102" fill="#b21a19" stroke="none">
 <path d="M3332 5468 c-8 -8 -12 -57 -12 -156 l0 -144 -22 16 c-139 100 -342 193 -513 236 -890 225 -1766 -394 -1931 -1365 -21 -127 -29 -369 -15 -494 26 -235 78 -415 182 -626 225 -457 624 -774 1102 -877 150 -32 437 -32 587 1 197 42 366 112 525 215 l86 56 -2 -1039 c0 -572 2 -1045 6 -1050 4 -8 152 -11 464 -11 374 0 461 3 470 14 8 10 10 702 9 2622 l-3 2609 -460 3 c-350 2 -464 -1 -473 -10z m916 -2605 l-3 -2608 -455 0 -455 0 -3 1048 c-1 576 -4 1047 -6 1047 -1 0 -41 -25 -87 -57 -158 -106 -339 -181 -539 -224 -149 -32 -418 -32 -567 -1 -478 103 -877 420 -1102 877 -141 286 -201 563 -188 870 20 465 194 872 507 1185 389 388 914 540 1425 410 176 -44 363 -130 496 -226 26 -19 49 -34 53 -34 3 0 6 67 6 148 0 102 4 152 12 160 9 9 125 12 460 12 l448 0 -2 -2607z"/>
 <path d="M2290 5263 c-85 -7 -220 -32 -247 -47 -16 -7 -51 -21 -78 -29 -45 -13 -96 -39 -272 -140 -64 -36 -183 -131 -203 -161 -8 -14 -27 -34 -42 -45 -15 -12 -57 -61 -94 -109 -38 -48 -71 -89 -74 -92 -4 -3 -37 -66 -75 -140 -37 -74 -71 -137 -75 -140 -25 -16 -88 -271 -106 -430 -21 -186 -10 -445 23 -545 11 -33 33 -100 48 -150 15 -49 31 -94 35 -100 4 -5 10 -24 13 -40 3 -17 22 -60 43 -95 20 -36 53 -94 73 -129 20 -35 74 -107 121 -159 47 -52 92 -104 100 -117 59 -88 306 -252 445 -295 22 -7 49 -18 60 -25 11 -6 31 -14 45 -18 14 -3 61 -15 105 -26 135 -35 281 -44 399 -26 121 20 220 41 301 65 33 9 87 25 120 35 78 22 104 38 227 137 155 124 346 321 377 388 9 19 26 50 39 67 12 18 28 47 34 65 6 18 24 54 39 80 35 58 95 234 120 350 29 133 42 350 29 493 -43 468 -266 894 -577 1104 -35 23 -71 44 -80 48 -10 3 -43 25 -74 49 -72 53 -200 105 -359 144 -100 24 -152 31 -260 34 -74 2 -155 1 -180 -1z m280 -544 c25 -6 64 -14 88 -18 24 -4 48 -13 54 -19 7 -7 24 -12 39 -12 29 0 108 -42 205 -108 58 -39 274 -254 274 -273 0 -5 16 -34 37 -66 41 -65 67 -127 94 -228 21 -77 30 -318 17 -432 -8 -65 -48 -202 -73 -250 -8 -15 -15 -32 -15 -36 0 -21 -93 -150 -119 -165 -16 -9 -43 -37 -60 -63 -75 -115 -327 -250 -541 -290 -104 -20 -313 -17 -390 5 -84 24 -261 109 -324 155 -48 35 -196 177 -196 188 0 3 -14 21 -31 41 -17 19 -39 54 -50 78 -10 24 -27 56 -38 71 -11 16 -35 71 -53 123 -32 93 -32 99 -34 289 -2 160 1 207 16 265 48 188 128 335 247 453 66 67 193 163 213 163 5 0 14 9 20 20 6 11 17 20 24 20 8 0 57 18 109 40 65 27 121 42 174 48 108 13 259 13 313 1z"/>
 <path d="M2308 4580 c-308 -56 -548 -294 -630 -626 -31 -125 -31 -313 0 -439 45 -181 160 -367 290 -470 70 -56 195 -119 282 -142 100 -27 274 -24 370 6 196 61 338 172 448 351 103 167 145 366 124 591 -11 121 -15 138 -57 231 -116 256 -274 404 -510 477 -79 25 -240 35 -317 21z m307 -31 c236 -72 394 -221 510 -477 41 -91 46 -110 57 -225 20 -215 -22 -412 -124 -577 -110 -179 -253 -291 -448 -351 -95 -29 -252 -32 -350 -6 -218 58 -396 208 -501 422 -67 138 -93 248 -93 400 0 419 271 766 652 835 73 14 219 3 297 -21z"/>
 </g>
<g id="layer103" fill="#1c2e9b" stroke="none">
 <path d="M3332 5468 c-8 -8 -12 -57 -12 -156 l0 -144 -22 16 c-139 100 -342 193 -513 236 -890 225 -1766 -394 -1931 -1365 -21 -127 -29 -369 -15 -494 26 -235 78 -415 182 -626 225 -457 624 -774 1102 -877 150 -32 437 -32 587 1 197 42 366 112 525 215 l86 56 -2 -1039 c0 -572 2 -1045 6 -1050 4 -8 152 -11 464 -11 374 0 461 3 470 14 8 10 10 702 9 2622 l-3 2609 -460 3 c-350 2 -464 -1 -473 -10z m916 -2605 l-3 -2608 -455 0 -455 0 -3 1048 c-1 576 -4 1047 -6 1047 -1 0 -41 -25 -87 -57 -158 -106 -339 -181 -539 -224 -149 -32 -418 -32 -567 -1 -478 103 -877 420 -1102 877 -141 286 -201 563 -188 870 20 465 194 872 507 1185 389 388 914 540 1425 410 176 -44 363 -130 496 -226 26 -19 49 -34 53 -34 3 0 6 67 6 148 0 102 4 152 12 160 9 9 125 12 460 12 l448 0 -2 -2607z"/>
 <path d="M2290 5263 c-85 -7 -220 -32 -247 -47 -16 -7 -51 -21 -78 -29 -45 -13 -96 -39 -272 -140 -64 -36 -183 -131 -203 -161 -8 -14 -27 -34 -42 -45 -15 -12 -57 -61 -94 -109 -38 -48 -71 -89 -74 -92 -4 -3 -37 -66 -75 -140 -37 -74 -71 -137 -75 -140 -25 -16 -88 -271 -106 -430 -21 -186 -10 -445 23 -545 11 -33 33 -100 48 -150 15 -49 31 -94 35 -100 4 -5 10 -24 13 -40 3 -17 22 -60 43 -95 20 -36 53 -94 73 -129 20 -35 74 -107 121 -159 47 -52 92 -104 100 -117 58 -88 305 -251 445 -295 22 -7 51 -18 65 -25 34 -17 93 -35 114 -35 9 0 19 8 23 18 4 9 19 32 35 50 15 18 28 38 28 45 0 18 95 247 120 290 12 20 19 37 15 37 -4 0 -2 7 5 15 21 25 4 43 -47 50 -128 18 -323 97 -427 174 -48 35 -196 177 -196 188 0 3 -14 21 -31 41 -17 19 -39 54 -50 78 -10 24 -27 56 -38 71 -11 16 -35 71 -53 123 -32 93 -32 99 -34 289 -2 160 1 207 16 265 48 188 128 335 247 453 66 67 193 163 213 163 5 0 14 9 20 20 6 11 17 20 24 20 8 0 56 18 108 39 71 30 118 42 191 50 119 13 237 13 297 0 25 -6 64 -14 88 -18 24 -4 48 -13 54 -19 7 -7 24 -12 39 -12 29 0 108 -42 205 -108 58 -39 274 -254 274 -273 0 -5 16 -34 37 -66 41 -65 67 -127 94 -228 22 -80 30 -324 15 -435 -4 -36 -10 -76 -11 -90 -2 -14 -10 -38 -19 -55 -9 -16 -16 -34 -16 -38 0 -9 -33 -86 -58 -135 -9 -18 -34 -55 -54 -82 -35 -47 -38 -54 -37 -117 1 -38 -3 -95 -9 -128 -6 -33 -13 -125 -17 -205 -4 -80 -13 -178 -21 -219 -9 -40 -12 -77 -7 -82 4 -4 33 14 63 40 30 27 70 62 89 77 79 67 237 234 252 268 7 14 16 26 20 26 4 0 11 10 15 23 4 12 18 37 32 55 13 17 22 32 18 32 -6 0 56 120 74 145 12 15 42 106 50 150 4 22 17 64 28 92 18 48 26 81 38 161 88 598 -148 1231 -563 1511 -35 23 -71 44 -80 48 -10 3 -43 25 -74 49 -72 53 -200 105 -359 144 -100 24 -152 31 -260 34 -74 2 -155 1 -180 -1z"/>
 <path d="M2308 4580 c-308 -56 -548 -294 -630 -626 -31 -125 -31 -313 0 -439 45 -181 160 -367 290 -470 70 -56 195 -119 282 -142 100 -27 274 -24 370 6 196 61 338 172 448 351 103 167 145 366 124 591 -11 121 -15 138 -57 231 -116 256 -274 404 -510 477 -79 25 -240 35 -317 21z m307 -31 c236 -72 394 -221 510 -477 41 -91 46 -110 57 -225 20 -215 -22 -412 -124 -577 -110 -179 -253 -291 -448 -351 -95 -29 -252 -32 -350 -6 -218 58 -396 208 -501 422 -67 138 -93 248 -93 400 0 419 271 766 652 835 73 14 219 3 297 -21z"/>
 </g>
<g id="layer104" fill="#58524f" stroke="none">
 <path d="M3332 5468 c-8 -8 -12 -57 -12 -156 l0 -144 -22 16 c-139 100 -342 193 -513 236 -890 225 -1766 -394 -1931 -1365 -21 -127 -29 -369 -15 -494 26 -235 78 -415 182 -626 225 -457 624 -774 1102 -877 150 -32 437 -32 587 1 197 42 366 112 525 215 l86 56 -2 -1039 c0 -572 2 -1045 6 -1050 4 -8 152 -11 464 -11 374 0 461 3 470 14 8 10 10 702 9 2622 l-3 2609 -460 3 c-350 2 -464 -1 -473 -10z m916 -2605 l-3 -2608 -455 0 -455 0 -3 1048 c-1 576 -4 1047 -6 1047 -1 0 -41 -25 -87 -57 -158 -106 -339 -181 -539 -224 -149 -32 -418 -32 -567 -1 -478 103 -877 420 -1102 877 -141 286 -201 563 -188 870 20 465 194 872 507 1185 389 388 914 540 1425 410 176 -44 363 -130 496 -226 26 -19 49 -34 53 -34 3 0 6 67 6 148 0 102 4 152 12 160 9 9 125 12 460 12 l448 0 -2 -2607z"/>
 <path d="M2290 5263 c-85 -7 -220 -32 -247 -47 -16 -7 -51 -21 -78 -29 -45 -13 -96 -39 -272 -140 -64 -36 -183 -131 -203 -161 -8 -14 -27 -34 -42 -45 -15 -12 -57 -61 -94 -109 -38 -48 -71 -89 -74 -92 -4 -3 -37 -65 -74 -138 -45 -89 -64 -137 -58 -145 5 -7 35 -73 67 -147 32 -74 78 -165 102 -202 40 -62 103 -128 122 -128 4 0 17 37 28 83 49 195 128 343 250 464 66 67 193 163 213 163 5 0 14 9 20 20 6 11 17 20 24 20 8 0 56 18 108 39 71 30 118 42 191 50 119 13 237 13 297 0 25 -6 64 -14 88 -18 24 -4 48 -13 54 -19 7 -7 24 -12 39 -12 29 0 108 -42 205 -108 58 -39 274 -254 274 -273 0 -5 16 -34 37 -66 41 -65 67 -127 94 -228 22 -80 30 -324 15 -435 -4 -36 -10 -76 -11 -90 -2 -14 -10 -38 -19 -55 -9 -16 -16 -34 -16 -38 0 -9 -33 -86 -58 -135 -9 -18 -34 -55 -54 -82 -35 -47 -38 -54 -37 -117 1 -38 -3 -95 -9 -128 -6 -33 -13 -125 -17 -205 -4 -80 -13 -178 -21 -219 -9 -40 -12 -77 -7 -82 4 -4 33 14 63 40 30 27 70 62 89 77 79 67 237 234 252 268 7 14 16 26 20 26 4 0 11 10 15 23 4 12 18 37 32 55 13 17 22 32 18 32 -6 0 56 120 74 145 12 15 42 106 50 150 4 22 17 64 28 92 18 48 26 81 38 161 88 598 -148 1231 -563 1511 -35 23 -71 44 -80 48 -10 3 -43 25 -74 49 -72 53 -200 105 -359 144 -100 24 -152 31 -260 34 -74 2 -155 1 -180 -1z"/>
 <path d="M2308 4580 c-308 -56 -548 -294 -630 -626 -31 -125 -31 -313 0 -439 45 -181 160 -367 290 -470 70 -56 195 -119 282 -142 100 -27 274 -24 370 6 196 61 338 172 448 351 103 167 145 366 124 591 -11 121 -15 138 -57 231 -116 256 -274 404 -510 477 -79 25 -240 35 -317 21z m307 -31 c236 -72 394 -221 510 -477 41 -91 46 -110 57 -225 20 -215 -22 -412 -124 -577 -110 -179 -253 -291 -448 -351 -95 -29 -252 -32 -350 -6 -218 58 -396 208 -501 422 -67 138 -93 248 -93 400 0 419 271 766 652 835 73 14 219 3 297 -21z"/>
 <path d="M1149 3129 c-18 -11 -5 -57 37 -129 20 -36 53 -94 73 -129 20 -35 74 -107 121 -159 47 -52 92 -104 100 -117 58 -88 305 -251 445 -295 22 -7 51 -18 65 -25 34 -17 93 -35 114 -35 9 0 19 8 23 18 4 9 19 32 35 50 15 18 28 38 28 45 0 18 95 247 120 290 12 20 19 37 15 37 -4 0 -2 7 5 15 21 25 4 43 -47 50 -90 12 -168 37 -273 88 -121 57 -182 99 -258 177 l-53 55 -72 -3 c-82 -4 -268 21 -330 44 -53 20 -133 33 -148 23z"/>
 </g>
<g id="layer105" fill="#4c9b1c" stroke="none">
 <path d="M3332 5468 c-8 -8 -12 -57 -12 -156 l0 -144 -22 16 c-139 100 -342 193 -513 236 -890 225 -1766 -394 -1931 -1365 -21 -127 -29 -369 -15 -494 26 -235 78 -415 182 -626 225 -457 624 -774 1102 -877 150 -32 437 -32 587 1 196 42 366 112 525 215 l85 55 3 -982 2 -982 3 991 2 992 -82 -56 c-157 -105 -339 -180 -538 -223 -150 -33 -437 -33 -587 -1 -690 148 -1191 735 -1274 1493 -14 125 -6 367 15 494 120 703 626 1251 1268 1374 401 76 833 -16 1150 -246 l47 -34 3 158 3 158 460 3 460 2 -1 -2592 c-1 -1426 -2 -2601 -3 -2610 -1 -17 -30 -18 -461 -18 l-460 0 0 44 c0 25 -4 48 -10 51 -15 9 -13 -88 2 -103 19 -19 921 -17 937 2 8 10 10 702 9 2622 l-3 2609 -460 3 c-350 2 -464 -1 -473 -10z"/>
 <path d="M2280 5263 c-30 -2 -62 -6 -70 -10 -8 -3 -35 -8 -60 -10 -24 -3 -70 -16 -102 -29 -32 -13 -64 -24 -72 -24 -9 0 -55 -21 -103 -46 -49 -26 -113 -60 -143 -75 -112 -59 -276 -209 -394 -361 -77 -100 -202 -334 -188 -352 5 -6 35 -72 67 -146 63 -148 126 -251 181 -299 40 -36 50 -34 59 12 23 119 113 334 161 388 8 8 14 20 14 25 0 20 176 180 245 224 39 25 74 50 78 57 4 7 13 13 19 13 6 0 55 18 109 39 72 29 123 43 193 50 120 14 249 14 301 0 22 -6 59 -14 82 -18 23 -4 49 -13 57 -21 9 -7 25 -10 35 -7 72 19 380 -226 486 -388 72 -108 77 -117 116 -243 45 -144 50 -390 13 -586 -2 -10 -7 -23 -12 -30 -5 -6 -17 -35 -27 -65 -23 -72 -81 -179 -116 -216 -26 -28 -29 -37 -28 -100 1 -39 -3 -97 -9 -130 -6 -33 -13 -125 -17 -205 -4 -80 -13 -178 -21 -219 -9 -40 -13 -75 -10 -78 8 -8 27 5 154 112 74 62 233 231 256 272 5 10 16 24 23 31 7 7 13 20 13 27 0 7 12 27 26 44 14 17 23 31 20 31 -4 0 14 38 39 86 53 99 85 179 85 212 0 13 5 33 11 45 55 102 84 432 59 670 -10 97 -61 315 -92 392 -85 215 -199 396 -333 532 -70 69 -214 173 -241 173 -8 0 -14 4 -14 8 0 16 -104 80 -180 113 -41 17 -135 47 -209 65 -112 29 -155 35 -270 38 -75 1 -161 1 -191 -1z"/>
 <path d="M2318 4580 c-384 -70 -662 -425 -662 -845 0 -152 26 -262 93 -400 106 -216 293 -374 511 -432 98 -26 255 -23 350 6 315 97 535 369 581 719 10 72 10 120 1 219 -11 115 -16 134 -57 225 -117 258 -283 414 -520 487 -78 24 -224 35 -297 21z m297 -31 c236 -72 394 -221 510 -477 41 -91 46 -110 57 -225 20 -215 -22 -412 -124 -577 -110 -179 -253 -291 -448 -351 -95 -29 -252 -32 -350 -6 -218 58 -396 208 -501 422 -67 138 -93 248 -93 400 0 419 271 766 652 835 73 14 219 3 297 -21z"/>
 <path d="M1148 3129 c-22 -14 14 -89 141 -300 33 -55 265 -312 304 -336 22 -14 63 -44 92 -68 48 -39 191 -115 217 -115 6 0 36 -11 67 -24 112 -48 161 -55 161 -24 0 6 14 26 30 45 17 18 30 39 30 46 0 18 95 247 120 290 12 20 19 37 15 37 -4 0 -2 7 5 15 21 25 4 43 -47 50 -189 24 -449 155 -546 275 l-38 47 -72 -4 c-80 -5 -266 19 -330 43 -54 21 -133 32 -149 23z"/>
 </g>
<g id="layer106" fill="#1c879b" stroke="none">
 <path d="M3332 5468 c-8 -8 -12 -57 -12 -156 l0 -144 -22 16 c-139 100 -342 193 -513 236 -890 225 -1766 -394 -1931 -1365 -21 -127 -29 -369 -15 -494 26 -235 78 -415 182 -626 225 -457 624 -774 1102 -877 150 -32 437 -32 587 1 196 42 366 112 525 215 l85 55 3 -982 2 -982 3 991 2 992 -82 -56 c-157 -105 -339 -180 -538 -223 -150 -33 -437 -33 -587 -1 -690 148 -1191 735 -1274 1493 -14 125 -6 367 15 494 120 703 626 1251 1268 1374 401 76 833 -16 1150 -246 l47 -34 3 158 3 158 460 3 460 2 -1 -2592 c-1 -1426 -2 -2601 -3 -2610 -1 -17 -30 -18 -461 -18 l-460 0 0 44 c0 25 -4 48 -10 51 -15 9 -13 -88 2 -103 19 -19 921 -17 937 2 8 10 10 702 9 2622 l-3 2609 -460 3 c-350 2 -464 -1 -473 -10z"/>
 <path d="M2129 5240 c-25 -4 -59 -15 -75 -23 -16 -8 -49 -20 -74 -27 -25 -6 -83 -32 -130 -58 -47 -25 -107 -57 -133 -71 -107 -58 -267 -206 -381 -353 -77 -100 -202 -334 -188 -352 5 -6 35 -72 67 -146 63 -148 126 -251 181 -299 40 -36 50 -34 59 12 23 119 113 334 161 388 8 8 14 20 14 25 0 17 164 171 227 213 l61 41 16 72 c9 40 30 105 48 143 58 128 122 259 169 347 42 77 49 101 30 97 -3 -1 -27 -5 -52 -9z"/>
 <path d="M3020 4920 c-56 -66 -132 -148 -169 -181 -60 -56 -64 -62 -47 -73 165 -101 215 -139 309 -236 98 -100 217 -271 217 -310 0 -8 11 -50 25 -92 40 -127 45 -385 9 -572 -2 -10 -7 -23 -12 -30 -5 -6 -17 -35 -27 -65 -23 -72 -81 -179 -116 -216 -26 -28 -29 -37 -28 -100 1 -39 -3 -97 -9 -130 -6 -33 -13 -125 -17 -205 -4 -80 -13 -178 -21 -219 -9 -40 -13 -75 -10 -78 8 -8 27 5 154 112 74 62 233 231 256 272 5 10 16 24 23 31 7 7 13 20 13 27 0 7 12 27 26 44 14 17 23 31 20 31 -4 0 14 38 39 86 53 99 85 179 85 212 0 13 6 35 13 50 37 74 67 268 67 432 0 295 -81 623 -215 866 -52 92 -185 258 -265 328 -69 61 -183 136 -206 136 -6 0 -57 -54 -114 -120z"/>
 <path d="M2318 4580 c-384 -70 -662 -425 -662 -845 0 -152 26 -262 93 -400 106 -216 293 -374 511 -432 98 -26 255 -23 350 6 315 97 535 369 581 719 10 72 10 120 1 219 -11 115 -16 134 -57 225 -117 258 -283 414 -520 487 -78 24 -224 35 -297 21z m297 -31 c236 -72 394 -221 510 -477 41 -91 46 -110 57 -225 20 -215 -22 -412 -124 -577 -110 -179 -253 -291 -448 -351 -95 -29 -252 -32 -350 -6 -218 58 -396 208 -501 422 -67 138 -93 248 -93 400 0 419 271 766 652 835 73 14 219 3 297 -21z"/>
 <path d="M1148 3129 c-22 -14 14 -89 141 -300 33 -55 265 -312 304 -336 22 -14 63 -44 92 -68 48 -39 191 -115 217 -115 6 0 36 -11 67 -24 112 -48 161 -55 161 -24 0 6 14 26 30 45 17 18 30 39 30 46 0 18 95 247 120 290 12 20 19 37 15 37 -4 0 -2 7 5 15 21 25 4 43 -47 50 -189 24 -449 155 -546 275 l-38 47 -72 -4 c-80 -5 -266 19 -330 43 -54 21 -133 32 -149 23z"/>
 </g>
<g id="layer107" fill="#8d1c9b" stroke="none">
 <path d="M3332 5468 c-8 -8 -12 -57 -12 -156 l0 -144 -22 16 c-139 100 -342 193 -513 236 -890 225 -1766 -394 -1931 -1365 -21 -127 -29 -369 -15 -494 26 -235 78 -415 182 -626 225 -457 624 -774 1102 -877 150 -32 437 -32 587 1 196 42 366 112 525 215 l85 55 3 -982 2 -982 3 991 2 992 -82 -56 c-157 -105 -339 -180 -538 -223 -150 -33 -437 -33 -587 -1 -690 148 -1191 735 -1274 1493 -14 125 -6 367 15 494 120 703 626 1251 1268 1374 401 76 833 -16 1150 -246 l47 -34 3 158 3 158 460 3 460 2 -1 -2592 c-1 -1426 -2 -2601 -3 -2610 -1 -17 -30 -18 -461 -18 l-460 0 0 44 c0 25 -4 48 -10 51 -15 9 -13 -88 2 -103 19 -19 921 -17 937 2 8 10 10 702 9 2622 l-3 2609 -460 3 c-350 2 -464 -1 -473 -10z"/>
 <path d="M3020 4920 c-56 -66 -132 -148 -169 -181 -60 -56 -64 -62 -47 -73 165 -101 215 -139 309 -236 98 -100 217 -271 217 -310 0 -8 11 -50 25 -92 40 -127 45 -385 9 -572 -2 -10 -7 -23 -12 -30 -5 -6 -17 -35 -27 -65 -23 -72 -81 -179 -116 -216 -26 -28 -29 -37 -28 -100 1 -39 -3 -97 -9 -130 -6 -33 -13 -125 -17 -205 -4 -80 -13 -178 -21 -219 -9 -40 -13 -75 -10 -78 8 -8 27 5 154 112 74 62 233 231 256 272 5 10 16 24 23 31 7 7 13 20 13 27 0 7 12 27 26 44 14 17 23 31 20 31 -4 0 14 38 39 86 53 99 85 179 85 212 0 13 6 35 13 50 37 74 67 268 67 432 0 295 -81 623 -215 866 -52 92 -185 258 -265 328 -69 61 -183 136 -206 136 -6 0 -57 -54 -114 -120z"/>
 <path d="M2318 4580 c-384 -70 -662 -425 -662 -845 0 -152 26 -262 93 -400 106 -216 293 -374 511 -432 98 -26 255 -23 350 6 315 97 535 369 581 719 10 72 10 120 1 219 -11 115 -16 134 -57 225 -117 258 -283 414 -520 487 -78 24 -224 35 -297 21z m297 -31 c236 -72 394 -221 510 -477 41 -91 46 -110 57 -225 20 -215 -22 -412 -124 -577 -110 -179 -253 -291 -448 -351 -95 -29 -252 -32 -350 -6 -218 58 -396 208 -501 422 -67 138 -93 248 -93 400 0 419 271 766 652 835 73 14 219 3 297 -21z"/>
 <path d="M1148 3129 c-22 -14 14 -89 141 -300 33 -55 265 -312 304 -336 22 -14 63 -44 92 -68 48 -39 191 -115 217 -115 6 0 36 -11 67 -24 112 -48 161 -55 161 -24 0 6 14 26 30 45 17 18 30 39 30 46 0 18 95 247 120 290 12 20 19 37 15 37 -4 0 -2 7 5 15 21 25 4 43 -47 50 -189 24 -449 155 -546 275 l-38 47 -72 -4 c-80 -5 -266 19 -330 43 -54 21 -133 32 -149 23z"/>
 </g>
<g id="layer108" fill="#de5317" stroke="none">
 <path d="M3332 5468 c-8 -8 -12 -57 -12 -156 l0 -144 -22 16 c-139 100 -342 193 -513 236 -890 225 -1766 -394 -1931 -1365 -21 -127 -29 -369 -15 -494 26 -235 78 -415 182 -626 225 -457 624 -774 1102 -877 150 -32 437 -32 587 1 196 42 366 112 525 215 l85 55 3 -982 2 -982 3 991 2 992 -82 -56 c-157 -105 -339 -180 -538 -223 -150 -33 -437 -33 -587 -1 -690 148 -1191 735 -1274 1493 -14 125 -6 367 15 494 120 703 626 1251 1268 1374 401 76 833 -16 1150 -246 l47 -34 3 158 3 158 460 3 460 2 -1 -2592 c-1 -1426 -2 -2601 -3 -2610 -1 -17 -30 -18 -461 -18 l-460 0 0 44 c0 25 -4 48 -10 51 -15 9 -13 -88 2 -103 19 -19 921 -17 937 2 8 10 10 702 9 2622 l-3 2609 -460 3 c-350 2 -464 -1 -473 -10z"/>
 <path d="M3020 4920 c-56 -66 -132 -148 -169 -181 -60 -56 -64 -62 -47 -73 165 -101 215 -139 309 -236 98 -100 217 -271 217 -310 0 -8 11 -50 25 -92 40 -127 45 -385 9 -572 -2 -10 -7 -23 -12 -30 -5 -6 -17 -35 -27 -65 -23 -72 -81 -179 -116 -216 -26 -28 -29 -37 -28 -100 1 -39 -3 -97 -9 -130 -6 -33 -13 -125 -17 -205 -4 -80 -13 -178 -21 -219 -9 -40 -13 -75 -10 -78 8 -8 27 5 154 112 74 62 233 231 256 272 5 10 16 24 23 31 7 7 13 20 13 27 0 7 12 27 26 44 14 17 23 31 20 31 -4 0 14 38 39 86 53 99 85 179 85 212 0 13 6 35 13 50 37 74 67 268 67 432 0 295 -81 623 -215 866 -52 92 -185 258 -265 328 -69 61 -183 136 -206 136 -6 0 -57 -54 -114 -120z"/>
 <path d="M2318 4580 c-384 -70 -662 -425 -662 -845 0 -152 26 -262 93 -400 106 -216 293 -374 511 -432 98 -26 255 -23 350 6 315 97 535 369 581 719 10 72 10 120 1 219 -11 115 -16 134 -57 225 -117 258 -283 414 -520 487 -78 24 -224 35 -297 21z m297 -31 c236 -72 394 -221 510 -477 41 -91 46 -110 57 -225 20 -215 -22 -412 -124 -577 -110 -179 -253 -291 -448 -351 -95 -29 -252 -32 -350 -6 -218 58 -396 208 -501 422 -67 138 -93 248 -93 400 0 419 271 766 652 835 73 14 219 3 297 -21z"/>
 </g>
<g id="layer109" fill="#d9c723" stroke="none">
 <path d="M3332 5468 c-8 -8 -12 -57 -12 -156 l0 -144 -22 16 c-139 100 -342 193 -513 236 -890 225 -1766 -394 -1931 -1365 -21 -127 -29 -369 -15 -494 26 -235 78 -415 182 -626 225 -457 624 -774 1102 -877 150 -32 437 -32 587 1 196 42 366 112 525 215 l85 55 3 -982 2 -982 3 991 2 992 -82 -56 c-157 -105 -339 -180 -538 -223 -150 -33 -437 -33 -587 -1 -690 148 -1191 735 -1274 1493 -14 125 -6 367 15 494 120 703 626 1251 1268 1374 401 76 833 -16 1150 -246 l47 -34 3 158 3 158 460 3 460 2 -1 -2592 c-1 -1426 -2 -2601 -3 -2610 -1 -17 -30 -18 -461 -18 l-460 0 0 44 c0 25 -4 48 -10 51 -15 9 -13 -88 2 -103 19 -19 921 -17 937 2 8 10 10 702 9 2622 l-3 2609 -460 3 c-350 2 -464 -1 -473 -10z"/>
 <path d="M3020 4920 c-56 -66 -132 -148 -169 -181 -60 -56 -64 -62 -47 -73 258 -156 402 -300 510 -509 28 -55 57 -86 121 -131 15 -10 68 -73 117 -140 149 -204 192 -259 221 -287 15 -15 27 -33 28 -41 0 -7 4 -4 9 7 12 29 12 222 -1 345 -22 219 -104 483 -204 666 -52 92 -185 258 -265 328 -69 61 -183 136 -206 136 -6 0 -57 -54 -114 -120z"/>
 <path d="M2318 4580 c-384 -70 -662 -425 -662 -845 0 -152 26 -262 93 -400 106 -216 293 -374 511 -432 98 -26 255 -23 350 6 315 97 535 369 581 719 10 72 10 120 1 219 -11 115 -16 134 -57 225 -117 258 -283 414 -520 487 -78 24 -224 35 -297 21z m297 -31 c236 -72 394 -221 510 -477 41 -91 46 -110 57 -225 20 -215 -22 -412 -124 -577 -110 -179 -253 -291 -448 -351 -95 -29 -252 -32 -350 -6 -218 58 -396 208 -501 422 -67 138 -93 248 -93 400 0 419 271 766 652 835 73 14 219 3 297 -21z"/>
 </g>
<g id="layer110" fill="#a3a3a3" stroke="none">
 <path d="M3332 5468 c-8 -8 -12 -57 -12 -156 l0 -144 -22 16 c-139 100 -342 193 -513 236 -890 225 -1766 -394 -1931 -1365 -21 -127 -29 -369 -15 -494 26 -235 78 -415 182 -626 225 -457 624 -774 1102 -877 150 -32 437 -32 587 1 196 42 366 112 525 215 l85 55 3 -982 2 -982 3 991 2 992 -82 -56 c-157 -105 -339 -180 -538 -223 -150 -33 -437 -33 -587 -1 -690 148 -1191 735 -1274 1493 -14 125 -6 367 15 494 120 703 626 1251 1268 1374 401 76 833 -16 1150 -246 l47 -34 3 158 3 158 460 3 460 2 -1 -2592 c-1 -1426 -2 -2601 -3 -2610 -1 -17 -30 -18 -461 -18 l-460 0 0 44 c0 25 -4 48 -10 51 -15 9 -13 -88 2 -103 19 -19 921 -17 937 2 8 10 10 702 9 2622 l-3 2609 -460 3 c-350 2 -464 -1 -473 -10z"/>
 <path d="M2318 4580 c-384 -70 -662 -425 -662 -845 0 -152 26 -262 93 -400 106 -216 293 -374 511 -432 98 -26 255 -23 350 6 315 97 535 369 581 719 10 72 10 120 1 219 -11 115 -16 134 -57 225 -117 258 -283 414 -520 487 -78 24 -224 35 -297 21z m297 -31 c236 -72 394 -221 510 -477 41 -91 46 -110 57 -225 20 -215 -22 -412 -124 -577 -110 -179 -253 -291 -448 -351 -95 -29 -252 -32 -350 -6 -218 58 -396 208 -501 422 -67 138 -93 248 -93 400 0 419 271 766 652 835 73 14 219 3 297 -21z"/>
 </g>
<g id="layer111" fill="#d6d6d6" stroke="none">
 <path d="M4255 2862 l0 -2617 -465 0 -465 0 -6 55 -6 55 -1 -50 c-1 -29 3 -56 10 -63 17 -17 919 -17 936 0 9 9 12 605 12 2619 0 1434 -3 2610 -7 2612 -5 3 -8 -1172 -8 -2611z"/>
 <path d="M1429 5093 l-34 -38 38 34 c20 19 37 36 37 38 0 8 -8 0 -41 -34z"/>
 <path d="M1335 5008 l-50 -53 53 50 c48 46 57 55 49 55 -1 0 -25 -24 -52 -52z"/>
 <path d="M1249 4913 l-34 -38 38 34 c20 19 37 36 37 38 0 8 -8 0 -41 -34z"/>
 <path d="M2930 4365 c30 -30 57 -55 59 -55 3 0 -19 25 -49 55 -30 30 -57 55 -59 55 -3 0 19 -25 49 -55z"/>
 <path d="M1905 4358 l-50 -53 53 50 c48 46 57 55 49 55 -1 0 -25 -24 -52 -52z"/>
 <path d="M2930 3103 l-55 -58 58 55 c31 30 57 56 57 57 0 8 -10 -1 -60 -54z"/>
 <path d="M1910 3108 c24 -27 45 -48 47 -48 8 0 0 9 -44 50 l-48 45 45 -47z"/>
 <path d="M1210 2627 c0 -2 15 -16 33 -33 l32 -29 -29 33 c-28 30 -36 37 -36 29z"/>
 <path d="M1270 2557 c0 -1 35 -36 78 -77 l77 -75 -75 78 c-69 71 -80 82 -80 74z"/>
 </g>

</svg>